%TF.GenerationSoftware,KiCad,Pcbnew,9.99.0-unknown-1.20250504git96522c4.fc41*%
%TF.CreationDate,2025-06-08T18:15:18+01:00*%
%TF.ProjectId,tr25-sao-r1,74723235-2d73-4616-9f2d-72312e6b6963,rev?*%
%TF.SameCoordinates,Original*%
%TF.FileFunction,Copper,L1,Top*%
%TF.FilePolarity,Positive*%
%FSLAX46Y46*%
G04 Gerber Fmt 4.6, Leading zero omitted, Abs format (unit mm)*
G04 Created by KiCad (PCBNEW 9.99.0-unknown-1.20250504git96522c4.fc41) date 2025-06-08 18:15:18*
%MOMM*%
%LPD*%
G01*
G04 APERTURE LIST*
%TA.AperFunction,NonConductor*%
%ADD10C,0.200000*%
%TD*%
%TA.AperFunction,EtchedComponent*%
%ADD11C,0.010000*%
%TD*%
%TA.AperFunction,SMDPad,CuDef*%
%ADD12R,1.200000X0.800000*%
%TD*%
%TA.AperFunction,ViaPad*%
%ADD13C,0.600000*%
%TD*%
%TA.AperFunction,Conductor*%
%ADD14C,0.300000*%
%TD*%
%TA.AperFunction,Conductor*%
%ADD15C,0.200000*%
%TD*%
G04 APERTURE END LIST*
D10*
X41100000Y-60600000D02*
G75*
G02*
X40700000Y-60600000I-200000J0D01*
G01*
X40700000Y-60600000D02*
G75*
G02*
X41100000Y-60600000I200000J0D01*
G01*
X58400000Y-82700000D02*
G75*
G02*
X58000000Y-82700000I-200000J0D01*
G01*
X58000000Y-82700000D02*
G75*
G02*
X58400000Y-82700000I200000J0D01*
G01*
X34000000Y-89700000D02*
G75*
G02*
X33600000Y-89700000I-200000J0D01*
G01*
X33600000Y-89700000D02*
G75*
G02*
X34000000Y-89700000I200000J0D01*
G01*
X52200000Y-54700000D02*
G75*
G02*
X51800000Y-54700000I-200000J0D01*
G01*
X51800000Y-54700000D02*
G75*
G02*
X52200000Y-54700000I200000J0D01*
G01*
D11*
%TO.C,N1*%
X49699758Y-34409678D02*
X49944975Y-34410642D01*
X50175002Y-34412314D01*
X50392823Y-34414765D01*
X50601423Y-34418065D01*
X50803786Y-34422285D01*
X51002896Y-34427497D01*
X51201738Y-34433770D01*
X51403296Y-34441176D01*
X51610555Y-34449786D01*
X51826499Y-34459671D01*
X52054112Y-34470901D01*
X52076908Y-34472064D01*
X53007840Y-34528037D01*
X53927358Y-34600126D01*
X54835150Y-34688286D01*
X55730903Y-34792471D01*
X56614303Y-34912637D01*
X57485036Y-35048738D01*
X58342789Y-35200729D01*
X59187250Y-35368565D01*
X60018105Y-35552200D01*
X60691741Y-35715221D01*
X60805768Y-35743947D01*
X60901683Y-35768255D01*
X60981902Y-35788885D01*
X61048842Y-35806578D01*
X61104918Y-35822074D01*
X61152546Y-35836113D01*
X61194144Y-35849436D01*
X61232126Y-35862784D01*
X61268910Y-35876898D01*
X61306911Y-35892517D01*
X61348546Y-35910383D01*
X61395533Y-35930929D01*
X61711784Y-36081147D01*
X62018328Y-36250047D01*
X62314719Y-36437278D01*
X62600516Y-36642493D01*
X62875275Y-36865341D01*
X63138553Y-37105472D01*
X63389905Y-37362538D01*
X63628889Y-37636188D01*
X63749751Y-37787012D01*
X63790157Y-37838650D01*
X63826168Y-37884087D01*
X63855784Y-37920845D01*
X63877003Y-37946447D01*
X63887824Y-37958417D01*
X63888693Y-37958991D01*
X63903572Y-37962046D01*
X63936764Y-37970828D01*
X63986378Y-37984763D01*
X64050520Y-38003276D01*
X64127297Y-38025794D01*
X64214818Y-38051742D01*
X64311188Y-38080546D01*
X64414515Y-38111632D01*
X64522907Y-38144425D01*
X64634469Y-38178351D01*
X64747311Y-38212836D01*
X64859537Y-38247306D01*
X64969257Y-38281186D01*
X65074577Y-38313902D01*
X65173603Y-38344881D01*
X65264444Y-38373547D01*
X65345207Y-38399327D01*
X65413997Y-38421646D01*
X65417200Y-38422697D01*
X65922350Y-38594021D01*
X66412271Y-38771045D01*
X66886647Y-38953574D01*
X67345165Y-39141416D01*
X67787509Y-39334377D01*
X68213365Y-39532262D01*
X68622420Y-39734879D01*
X69014358Y-39942034D01*
X69388865Y-40153532D01*
X69745627Y-40369181D01*
X70084329Y-40588786D01*
X70404658Y-40812154D01*
X70706298Y-41039091D01*
X70988935Y-41269404D01*
X71252255Y-41502899D01*
X71495944Y-41739382D01*
X71719686Y-41978659D01*
X71923169Y-42220537D01*
X72106077Y-42464823D01*
X72197562Y-42599783D01*
X72349687Y-42849105D01*
X72481228Y-43099452D01*
X72592108Y-43350567D01*
X72682246Y-43602195D01*
X72751565Y-43854081D01*
X72799986Y-44105969D01*
X72827431Y-44357603D01*
X72833821Y-44608730D01*
X72832405Y-44663533D01*
X72823356Y-44833632D01*
X72807996Y-44990755D01*
X72785247Y-45140394D01*
X72754029Y-45288042D01*
X72713262Y-45439190D01*
X72661867Y-45599331D01*
X72631519Y-45685395D01*
X72527393Y-45943016D01*
X72402384Y-46198145D01*
X72256644Y-46450676D01*
X72090321Y-46700502D01*
X71903565Y-46947517D01*
X71696525Y-47191615D01*
X71469352Y-47432690D01*
X71222195Y-47670636D01*
X70955204Y-47905347D01*
X70668528Y-48136717D01*
X70362317Y-48364640D01*
X70036721Y-48589009D01*
X69691890Y-48809718D01*
X69327973Y-49026662D01*
X68945119Y-49239734D01*
X68543480Y-49448829D01*
X68123203Y-49653839D01*
X67684439Y-49854660D01*
X67227338Y-50051184D01*
X66752049Y-50243306D01*
X66258722Y-50430919D01*
X65747507Y-50613919D01*
X65612991Y-50660281D01*
X65124480Y-50821902D01*
X64615779Y-50979565D01*
X64087518Y-51133104D01*
X63540331Y-51282357D01*
X62974851Y-51427159D01*
X62391710Y-51567347D01*
X61791540Y-51702755D01*
X61174974Y-51833220D01*
X60804866Y-51907592D01*
X60670772Y-51933935D01*
X60537548Y-51959940D01*
X60407434Y-51985180D01*
X60282670Y-52009229D01*
X60165495Y-52031658D01*
X60058150Y-52052041D01*
X59962873Y-52069950D01*
X59881907Y-52084958D01*
X59817489Y-52096637D01*
X59776283Y-52103820D01*
X59660094Y-52123269D01*
X59538970Y-52143304D01*
X59414661Y-52163654D01*
X59288915Y-52184046D01*
X59163478Y-52204207D01*
X59040100Y-52223866D01*
X58920528Y-52242749D01*
X58806510Y-52260585D01*
X58699796Y-52277101D01*
X58602131Y-52292025D01*
X58515265Y-52305084D01*
X58440946Y-52316006D01*
X58380922Y-52324519D01*
X58336941Y-52330350D01*
X58310750Y-52333227D01*
X58303806Y-52333257D01*
X58299872Y-52321647D01*
X58291547Y-52291754D01*
X58279418Y-52245865D01*
X58264075Y-52186269D01*
X58246105Y-52115254D01*
X58226097Y-52035109D01*
X58204638Y-51948123D01*
X58201247Y-51934283D01*
X58184867Y-51867474D01*
X58163924Y-51782210D01*
X58138935Y-51680583D01*
X58110415Y-51564686D01*
X58078879Y-51436613D01*
X58044843Y-51298455D01*
X58008823Y-51152306D01*
X57971335Y-51000259D01*
X57932893Y-50844406D01*
X57916031Y-50776066D01*
X58985970Y-50776066D01*
X58986746Y-50826236D01*
X58997855Y-50882167D01*
X59018598Y-50937932D01*
X59020223Y-50941329D01*
X59060186Y-51002586D01*
X59117281Y-51060699D01*
X59187479Y-51112786D01*
X59266745Y-51155968D01*
X59351050Y-51187363D01*
X59372525Y-51193053D01*
X59411433Y-51199415D01*
X59467701Y-51204277D01*
X59537558Y-51207384D01*
X59601871Y-51208443D01*
X59671945Y-51208328D01*
X59725822Y-51206876D01*
X59768453Y-51203667D01*
X59804787Y-51198282D01*
X59839774Y-51190303D01*
X59850504Y-51187408D01*
X59945091Y-51153568D01*
X60029771Y-51108102D01*
X60101633Y-51053146D01*
X60157772Y-50990832D01*
X60188327Y-50939450D01*
X60207927Y-50884073D01*
X60217760Y-50826069D01*
X60217497Y-50771621D01*
X60206809Y-50726913D01*
X60200310Y-50714335D01*
X60161508Y-50670879D01*
X60103891Y-50632170D01*
X60029413Y-50598873D01*
X59940030Y-50571659D01*
X59837695Y-50551193D01*
X59724365Y-50538145D01*
X59675741Y-50535121D01*
X59553513Y-50533921D01*
X59437679Y-50541771D01*
X59330309Y-50558055D01*
X59233474Y-50582154D01*
X59149244Y-50613453D01*
X59079688Y-50651335D01*
X59026878Y-50695182D01*
X58996225Y-50737588D01*
X58985970Y-50776066D01*
X57916031Y-50776066D01*
X57894015Y-50686841D01*
X57855214Y-50529656D01*
X57841418Y-50473783D01*
X57804606Y-50324342D01*
X57768893Y-50178652D01*
X57734655Y-50038283D01*
X57702266Y-49904804D01*
X57672101Y-49779786D01*
X57644538Y-49664797D01*
X57619949Y-49561407D01*
X57598711Y-49471185D01*
X57581200Y-49395702D01*
X57567789Y-49336527D01*
X57558855Y-49295229D01*
X57555478Y-49277866D01*
X57520761Y-49112881D01*
X57476584Y-48965753D01*
X57422351Y-48835117D01*
X57357463Y-48719608D01*
X57281325Y-48617862D01*
X57252957Y-48586361D01*
X57184426Y-48524434D01*
X57095135Y-48461890D01*
X56985473Y-48398976D01*
X56867857Y-48341406D01*
X56804071Y-48311876D01*
X56736777Y-48280117D01*
X56672900Y-48249435D01*
X56619367Y-48223137D01*
X56606575Y-48216705D01*
X56534369Y-48183071D01*
X56444156Y-48145905D01*
X56338625Y-48106123D01*
X56220461Y-48064647D01*
X56092351Y-48022395D01*
X55956982Y-47980286D01*
X55817041Y-47939240D01*
X55704119Y-47907926D01*
X55393510Y-47828943D01*
X55063275Y-47754342D01*
X54714530Y-47684274D01*
X54348389Y-47618894D01*
X53965966Y-47558354D01*
X53568377Y-47502808D01*
X53156737Y-47452409D01*
X52732159Y-47407310D01*
X52295760Y-47367666D01*
X51848652Y-47333628D01*
X51391953Y-47305350D01*
X51277866Y-47299274D01*
X50919660Y-47283130D01*
X50545396Y-47270662D01*
X50159448Y-47261877D01*
X49766187Y-47256782D01*
X49369989Y-47255382D01*
X48975225Y-47257684D01*
X48586270Y-47263696D01*
X48207496Y-47273423D01*
X47843277Y-47286872D01*
X47690116Y-47293905D01*
X47228260Y-47319625D01*
X46775642Y-47351154D01*
X46333346Y-47388345D01*
X45902452Y-47431048D01*
X45484043Y-47479116D01*
X45079199Y-47532400D01*
X44689004Y-47590751D01*
X44314538Y-47654022D01*
X43956884Y-47722064D01*
X43617123Y-47794728D01*
X43296337Y-47871867D01*
X43104157Y-47922782D01*
X42996764Y-47953237D01*
X42887247Y-47985957D01*
X42778247Y-48020031D01*
X42672403Y-48054551D01*
X42572355Y-48088606D01*
X42480743Y-48121287D01*
X42400206Y-48151684D01*
X42333384Y-48178888D01*
X42282918Y-48201989D01*
X42263201Y-48212551D01*
X42237502Y-48226280D01*
X42196587Y-48246638D01*
X42144576Y-48271645D01*
X42085589Y-48299316D01*
X42028033Y-48325726D01*
X41962096Y-48356720D01*
X41895573Y-48389889D01*
X41833759Y-48422458D01*
X41781955Y-48451653D01*
X41751774Y-48470386D01*
X41656479Y-48543218D01*
X41572934Y-48627551D01*
X41500433Y-48724711D01*
X41438268Y-48836024D01*
X41385734Y-48962814D01*
X41342122Y-49106408D01*
X41306727Y-49268131D01*
X41297154Y-49323121D01*
X41291972Y-49349384D01*
X41281982Y-49394829D01*
X41267508Y-49458102D01*
X41248878Y-49537850D01*
X41226417Y-49632721D01*
X41200452Y-49741360D01*
X41171307Y-49862416D01*
X41139309Y-49994534D01*
X41104785Y-50136363D01*
X41068059Y-50286548D01*
X41029459Y-50443737D01*
X40989309Y-50606577D01*
X40947937Y-50773715D01*
X40938914Y-50810079D01*
X40897475Y-50977030D01*
X40857193Y-51139354D01*
X40818390Y-51295751D01*
X40781388Y-51444925D01*
X40746508Y-51585577D01*
X40714072Y-51716409D01*
X40684402Y-51836125D01*
X40657819Y-51943425D01*
X40634645Y-52037012D01*
X40615201Y-52115588D01*
X40599810Y-52177855D01*
X40588792Y-52222516D01*
X40582470Y-52248273D01*
X40581629Y-52251737D01*
X40568046Y-52300267D01*
X40555523Y-52329276D01*
X40545852Y-52337967D01*
X40532442Y-52336663D01*
X40500373Y-52332281D01*
X40451873Y-52325160D01*
X40389171Y-52315641D01*
X40314495Y-52304066D01*
X40230075Y-52290774D01*
X40138140Y-52276108D01*
X40080700Y-52266854D01*
X39891336Y-52236180D01*
X39720348Y-52208334D01*
X39565199Y-52182865D01*
X39423355Y-52159324D01*
X39292279Y-52137258D01*
X39169435Y-52116219D01*
X39052288Y-52095755D01*
X38938302Y-52075416D01*
X38824941Y-52054751D01*
X38709670Y-52033309D01*
X38589953Y-52010641D01*
X38463253Y-51986295D01*
X38327036Y-51959821D01*
X38178766Y-51930768D01*
X38081658Y-51911655D01*
X37503283Y-51794437D01*
X36944517Y-51674572D01*
X36403926Y-51551689D01*
X35880075Y-51425417D01*
X35371530Y-51295385D01*
X34876857Y-51161222D01*
X34394621Y-51022558D01*
X33923387Y-50879022D01*
X33671709Y-50797915D01*
X38579483Y-50797915D01*
X38587203Y-50851532D01*
X38599142Y-50894978D01*
X38633155Y-50969849D01*
X38685917Y-51037353D01*
X38755867Y-51096089D01*
X38841446Y-51144657D01*
X38906230Y-51170634D01*
X38943958Y-51183527D01*
X38973834Y-51192937D01*
X39000325Y-51199436D01*
X39027897Y-51203602D01*
X39061014Y-51206008D01*
X39104143Y-51207229D01*
X39161748Y-51207841D01*
X39197204Y-51208097D01*
X39266972Y-51208137D01*
X39320539Y-51206832D01*
X39362847Y-51203771D01*
X39398841Y-51198542D01*
X39433465Y-51190733D01*
X39445837Y-51187408D01*
X39540425Y-51153568D01*
X39625104Y-51108102D01*
X39696967Y-51053146D01*
X39753105Y-50990832D01*
X39783660Y-50939450D01*
X39803260Y-50884073D01*
X39813093Y-50826069D01*
X39812831Y-50771621D01*
X39802143Y-50726913D01*
X39795643Y-50714335D01*
X39755984Y-50669826D01*
X39698772Y-50631477D01*
X39626728Y-50599373D01*
X39542574Y-50573597D01*
X39449034Y-50554232D01*
X39348828Y-50541364D01*
X39244680Y-50535075D01*
X39139310Y-50535450D01*
X39035443Y-50542573D01*
X38935798Y-50556527D01*
X38843100Y-50577396D01*
X38760069Y-50605265D01*
X38689428Y-50640216D01*
X38637775Y-50678649D01*
X38603947Y-50716078D01*
X38584790Y-50754298D01*
X38579483Y-50797915D01*
X33671709Y-50797915D01*
X33461722Y-50730244D01*
X33296783Y-50675056D01*
X32788864Y-50498064D01*
X32297460Y-50315967D01*
X31822798Y-50128917D01*
X31365108Y-49937065D01*
X30924616Y-49740562D01*
X30501553Y-49539561D01*
X30096146Y-49334212D01*
X29708624Y-49124668D01*
X29339215Y-48911079D01*
X28988148Y-48693598D01*
X28655651Y-48472375D01*
X28341953Y-48247563D01*
X28047282Y-48019313D01*
X27771867Y-47787776D01*
X27515936Y-47553104D01*
X27279718Y-47315448D01*
X27063440Y-47074961D01*
X26867333Y-46831793D01*
X26691623Y-46586096D01*
X26576454Y-46401869D01*
X31965459Y-46401869D01*
X31971839Y-46470230D01*
X31990324Y-46545055D01*
X32020061Y-46621556D01*
X32022183Y-46626092D01*
X32047413Y-46673461D01*
X32077324Y-46716026D01*
X32117022Y-46760601D01*
X32141185Y-46784842D01*
X32234402Y-46862751D01*
X32340128Y-46925858D01*
X32459799Y-46974860D01*
X32594852Y-47010456D01*
X32612103Y-47013849D01*
X32657730Y-47019679D01*
X32718780Y-47023431D01*
X32790396Y-47025197D01*
X32867715Y-47025072D01*
X32945880Y-47023148D01*
X33020030Y-47019518D01*
X33085306Y-47014275D01*
X33136847Y-47007512D01*
X33156612Y-47003424D01*
X33281307Y-46964347D01*
X33394752Y-46913156D01*
X33495038Y-46851177D01*
X33580253Y-46779738D01*
X33648488Y-46700164D01*
X33688230Y-46634236D01*
X33711120Y-46579913D01*
X33729857Y-46519245D01*
X33742959Y-46458809D01*
X33748947Y-46405183D01*
X33748543Y-46395465D01*
X65057366Y-46395465D01*
X65067554Y-46496717D01*
X65097277Y-46592808D01*
X65145279Y-46682533D01*
X65210301Y-46764684D01*
X65291085Y-46838054D01*
X65386374Y-46901437D01*
X65494908Y-46953625D01*
X65615431Y-46993412D01*
X65700197Y-47012160D01*
X65754981Y-47019296D01*
X65824698Y-47024286D01*
X65903214Y-47027059D01*
X65984398Y-47027542D01*
X66062116Y-47025663D01*
X66130237Y-47021352D01*
X66163848Y-47017582D01*
X66278832Y-46994139D01*
X66390332Y-46957201D01*
X66494747Y-46908645D01*
X66588480Y-46850350D01*
X66667931Y-46784196D01*
X66717533Y-46728532D01*
X66768989Y-46649575D01*
X66806317Y-46567623D01*
X66828847Y-46485882D01*
X66835910Y-46407555D01*
X66826837Y-46335848D01*
X66809331Y-46288910D01*
X66768339Y-46230222D01*
X66708561Y-46176795D01*
X66631839Y-46129151D01*
X66540015Y-46087808D01*
X66434931Y-46053289D01*
X66318432Y-46026114D01*
X66192358Y-46006804D01*
X66058552Y-45995880D01*
X65918857Y-45993862D01*
X65787985Y-46000220D01*
X65643518Y-46016319D01*
X65512850Y-46040505D01*
X65396849Y-46072310D01*
X65296381Y-46111266D01*
X65212313Y-46156902D01*
X65145511Y-46208750D01*
X65096842Y-46266342D01*
X65067173Y-46329208D01*
X65057366Y-46395465D01*
X33748543Y-46395465D01*
X33747525Y-46371011D01*
X33725688Y-46300616D01*
X33683826Y-46236620D01*
X33622128Y-46179141D01*
X33540782Y-46128297D01*
X33439976Y-46084205D01*
X33319898Y-46046983D01*
X33180738Y-46016750D01*
X33180366Y-46016683D01*
X33126010Y-46009507D01*
X33055580Y-46004032D01*
X32974108Y-46000300D01*
X32886620Y-45998352D01*
X32798147Y-45998232D01*
X32713717Y-45999981D01*
X32638360Y-46003642D01*
X32577104Y-46009257D01*
X32561241Y-46011482D01*
X32424384Y-46038219D01*
X32303931Y-46072645D01*
X32200563Y-46114374D01*
X32114960Y-46163022D01*
X32047802Y-46218203D01*
X31999771Y-46279534D01*
X31972038Y-46344759D01*
X31965459Y-46401869D01*
X26576454Y-46401869D01*
X26536539Y-46338021D01*
X26413188Y-46109649D01*
X26356868Y-45991502D01*
X26301599Y-45865265D01*
X26249329Y-45735993D01*
X26202007Y-45608736D01*
X26161580Y-45488547D01*
X26129997Y-45380479D01*
X26125739Y-45364039D01*
X26071780Y-45108548D01*
X26038795Y-44851078D01*
X26026784Y-44592516D01*
X26035751Y-44333753D01*
X26065697Y-44075676D01*
X26116623Y-43819177D01*
X26122360Y-43795700D01*
X26165881Y-43635877D01*
X26215992Y-43482475D01*
X26274770Y-43330108D01*
X26344291Y-43173392D01*
X26425700Y-43008740D01*
X26570821Y-42749478D01*
X26736831Y-42493437D01*
X26923693Y-42240649D01*
X26930638Y-42232305D01*
X37523184Y-42232305D01*
X37524845Y-42299400D01*
X37534791Y-42361756D01*
X37568796Y-42478076D01*
X37621400Y-42585117D01*
X37691896Y-42682276D01*
X37779576Y-42768949D01*
X37883732Y-42844532D01*
X38003656Y-42908420D01*
X38138641Y-42960011D01*
X38279257Y-42996887D01*
X38338157Y-43006033D01*
X38413212Y-43012727D01*
X38499553Y-43016971D01*
X38592311Y-43018770D01*
X38686618Y-43018128D01*
X38777604Y-43015048D01*
X38860402Y-43009534D01*
X38930142Y-43001591D01*
X38960403Y-42996345D01*
X39106878Y-42958334D01*
X39240041Y-42907085D01*
X39358971Y-42843346D01*
X39462743Y-42767863D01*
X39550436Y-42681384D01*
X39621127Y-42584656D01*
X39673893Y-42478426D01*
X39699996Y-42397541D01*
X39717325Y-42310912D01*
X39720345Y-42241205D01*
X59087194Y-42241205D01*
X59087783Y-42300016D01*
X59093927Y-42358273D01*
X59099263Y-42385660D01*
X59122544Y-42459203D01*
X59157778Y-42537837D01*
X59200739Y-42613008D01*
X59236202Y-42662867D01*
X59310308Y-42741213D01*
X59401748Y-42813383D01*
X59507138Y-42877545D01*
X59623093Y-42931864D01*
X59746231Y-42974506D01*
X59860950Y-43001484D01*
X59908144Y-43007557D01*
X59971854Y-43012163D01*
X60047475Y-43015298D01*
X60130407Y-43016956D01*
X60216048Y-43017133D01*
X60299796Y-43015824D01*
X60377049Y-43013025D01*
X60443205Y-43008731D01*
X60493663Y-43002938D01*
X60498491Y-43002133D01*
X60582985Y-42983123D01*
X60675445Y-42955168D01*
X60766458Y-42921405D01*
X60839908Y-42888367D01*
X60949789Y-42823607D01*
X61046056Y-42746949D01*
X61127442Y-42660221D01*
X61192678Y-42565248D01*
X61240499Y-42463856D01*
X61269636Y-42357873D01*
X61278856Y-42255825D01*
X61268645Y-42179524D01*
X61238342Y-42107786D01*
X61188621Y-42041083D01*
X61120157Y-41979890D01*
X61033627Y-41924678D01*
X60929705Y-41875923D01*
X60809067Y-41834096D01*
X60672387Y-41799672D01*
X60611004Y-41787651D01*
X60568765Y-41780420D01*
X60529384Y-41774807D01*
X60489277Y-41770615D01*
X60444858Y-41767644D01*
X60392542Y-41765696D01*
X60328744Y-41764572D01*
X60249877Y-41764075D01*
X60183741Y-41763993D01*
X60091800Y-41764179D01*
X60017470Y-41764866D01*
X59957198Y-41766246D01*
X59907432Y-41768514D01*
X59864618Y-41771861D01*
X59825203Y-41776481D01*
X59785634Y-41782566D01*
X59760408Y-41786990D01*
X59611775Y-41819440D01*
X59480018Y-41859760D01*
X59365729Y-41907622D01*
X59269506Y-41962697D01*
X59191941Y-42024659D01*
X59133630Y-42093178D01*
X59102316Y-42149991D01*
X59092069Y-42188858D01*
X59087194Y-42241205D01*
X39720345Y-42241205D01*
X39720526Y-42237033D01*
X39708736Y-42172160D01*
X39681092Y-42112549D01*
X39636732Y-42054455D01*
X39615906Y-42032592D01*
X39534475Y-41964985D01*
X39434706Y-41906489D01*
X39317484Y-41857347D01*
X39183689Y-41817803D01*
X39034205Y-41788098D01*
X38869913Y-41768477D01*
X38691697Y-41759182D01*
X38620200Y-41758408D01*
X38450538Y-41763209D01*
X38291169Y-41777339D01*
X38143316Y-41800384D01*
X38008200Y-41831932D01*
X37887045Y-41871569D01*
X37781073Y-41918884D01*
X37691506Y-41973463D01*
X37619568Y-42034894D01*
X37566480Y-42102763D01*
X37558318Y-42116915D01*
X37534171Y-42173257D01*
X37523184Y-42232305D01*
X26930638Y-42232305D01*
X27131371Y-41991143D01*
X27359828Y-41744950D01*
X27609029Y-41502101D01*
X27878937Y-41262627D01*
X28169516Y-41026558D01*
X28241361Y-40972853D01*
X48125869Y-40972853D01*
X48132109Y-41062524D01*
X48143658Y-41110140D01*
X48181792Y-41200355D01*
X48239316Y-41286513D01*
X48314687Y-41367700D01*
X48406363Y-41443003D01*
X48512800Y-41511506D01*
X48632457Y-41572297D01*
X48763791Y-41624462D01*
X48905259Y-41667086D01*
X49055319Y-41699256D01*
X49164642Y-41715064D01*
X49237356Y-41721046D01*
X49324134Y-41724264D01*
X49418063Y-41724775D01*
X49512229Y-41722642D01*
X49599718Y-41717922D01*
X49673617Y-41710676D01*
X49673683Y-41710667D01*
X49830722Y-41683799D01*
X49979344Y-41645930D01*
X50118039Y-41597951D01*
X50245297Y-41540752D01*
X50359609Y-41475223D01*
X50459466Y-41402253D01*
X50543357Y-41322732D01*
X50609774Y-41237551D01*
X50657206Y-41147599D01*
X50665373Y-41126040D01*
X50681011Y-41056893D01*
X50684671Y-40978938D01*
X50676738Y-40900475D01*
X50657599Y-40829806D01*
X50650838Y-40813739D01*
X50595959Y-40719221D01*
X50521982Y-40631263D01*
X50430149Y-40550567D01*
X50321702Y-40477832D01*
X50197883Y-40413758D01*
X50059932Y-40359044D01*
X49909092Y-40314392D01*
X49746604Y-40280500D01*
X49689128Y-40271581D01*
X49612955Y-40263585D01*
X49522356Y-40258587D01*
X49423862Y-40256595D01*
X49324001Y-40257614D01*
X49229302Y-40261652D01*
X49146295Y-40268717D01*
X49128006Y-40270974D01*
X48974424Y-40297337D01*
X48830287Y-40333789D01*
X48696613Y-40379464D01*
X48574417Y-40433494D01*
X48464718Y-40495013D01*
X48368530Y-40563154D01*
X48286873Y-40637051D01*
X48220761Y-40715835D01*
X48171212Y-40798642D01*
X48139242Y-40884603D01*
X48125869Y-40972853D01*
X28241361Y-40972853D01*
X28480730Y-40793924D01*
X28812542Y-40564756D01*
X29164916Y-40339086D01*
X29537816Y-40116942D01*
X29931205Y-39898357D01*
X30345048Y-39683360D01*
X30402241Y-39654732D01*
X30826053Y-39450109D01*
X31263652Y-39251874D01*
X31715998Y-39059660D01*
X32184050Y-38873101D01*
X32668769Y-38691831D01*
X33171113Y-38515483D01*
X33692042Y-38343692D01*
X34232517Y-38176090D01*
X34427146Y-38118154D01*
X34529110Y-38088066D01*
X34624772Y-38059730D01*
X34712242Y-38033715D01*
X34789629Y-38010588D01*
X34855040Y-37990916D01*
X34906586Y-37975268D01*
X34942374Y-37964210D01*
X34960513Y-37958311D01*
X34962409Y-37957517D01*
X35194083Y-37662915D01*
X35433733Y-37387678D01*
X35681928Y-37131339D01*
X35939236Y-36893433D01*
X36206226Y-36673496D01*
X36483467Y-36471063D01*
X36771528Y-36285668D01*
X37070978Y-36116847D01*
X37382385Y-35964135D01*
X37424283Y-35945215D01*
X37477518Y-35921783D01*
X37527429Y-35900815D01*
X37576457Y-35881560D01*
X37627043Y-35863268D01*
X37681626Y-35845188D01*
X37742648Y-35826570D01*
X37812550Y-35806664D01*
X37893772Y-35784718D01*
X37988754Y-35759983D01*
X38099938Y-35731709D01*
X38202158Y-35706044D01*
X39008589Y-35513459D01*
X39825822Y-35336475D01*
X40654603Y-35174963D01*
X41495676Y-35028790D01*
X42349788Y-34897824D01*
X43217685Y-34781935D01*
X43874825Y-34705192D01*
X43967702Y-34695045D01*
X44053384Y-34685808D01*
X44135320Y-34677131D01*
X44216962Y-34668664D01*
X44301762Y-34660058D01*
X44393170Y-34650963D01*
X44494638Y-34641030D01*
X44609618Y-34629909D01*
X44741560Y-34617250D01*
X44769116Y-34614615D01*
X44936589Y-34599253D01*
X45121641Y-34583443D01*
X45320693Y-34567437D01*
X45530169Y-34551488D01*
X45746493Y-34535849D01*
X45966086Y-34520772D01*
X46185373Y-34506511D01*
X46400775Y-34493318D01*
X46608717Y-34481445D01*
X46785241Y-34472162D01*
X47007752Y-34461245D01*
X47215960Y-34451595D01*
X47412784Y-34443144D01*
X47601140Y-34435823D01*
X47783947Y-34429562D01*
X47964123Y-34424292D01*
X48144583Y-34419944D01*
X48328247Y-34416450D01*
X48518032Y-34413739D01*
X48716855Y-34411742D01*
X48927634Y-34410392D01*
X49153287Y-34409617D01*
X49396731Y-34409350D01*
X49436366Y-34409350D01*
X49699758Y-34409678D01*
%TA.AperFunction,EtchedComponent*%
G36*
X49699758Y-34409678D02*
G01*
X49944975Y-34410642D01*
X50175002Y-34412314D01*
X50392823Y-34414765D01*
X50601423Y-34418065D01*
X50803786Y-34422285D01*
X51002896Y-34427497D01*
X51201738Y-34433770D01*
X51403296Y-34441176D01*
X51610555Y-34449786D01*
X51826499Y-34459671D01*
X52054112Y-34470901D01*
X52076908Y-34472064D01*
X53007840Y-34528037D01*
X53927358Y-34600126D01*
X54835150Y-34688286D01*
X55730903Y-34792471D01*
X56614303Y-34912637D01*
X57485036Y-35048738D01*
X58342789Y-35200729D01*
X59187250Y-35368565D01*
X60018105Y-35552200D01*
X60691741Y-35715221D01*
X60805768Y-35743947D01*
X60901683Y-35768255D01*
X60981902Y-35788885D01*
X61048842Y-35806578D01*
X61104918Y-35822074D01*
X61152546Y-35836113D01*
X61194144Y-35849436D01*
X61232126Y-35862784D01*
X61268910Y-35876898D01*
X61306911Y-35892517D01*
X61348546Y-35910383D01*
X61395533Y-35930929D01*
X61711784Y-36081147D01*
X62018328Y-36250047D01*
X62314719Y-36437278D01*
X62600516Y-36642493D01*
X62875275Y-36865341D01*
X63138553Y-37105472D01*
X63389905Y-37362538D01*
X63628889Y-37636188D01*
X63749751Y-37787012D01*
X63790157Y-37838650D01*
X63826168Y-37884087D01*
X63855784Y-37920845D01*
X63877003Y-37946447D01*
X63887824Y-37958417D01*
X63888693Y-37958991D01*
X63903572Y-37962046D01*
X63936764Y-37970828D01*
X63986378Y-37984763D01*
X64050520Y-38003276D01*
X64127297Y-38025794D01*
X64214818Y-38051742D01*
X64311188Y-38080546D01*
X64414515Y-38111632D01*
X64522907Y-38144425D01*
X64634469Y-38178351D01*
X64747311Y-38212836D01*
X64859537Y-38247306D01*
X64969257Y-38281186D01*
X65074577Y-38313902D01*
X65173603Y-38344881D01*
X65264444Y-38373547D01*
X65345207Y-38399327D01*
X65413997Y-38421646D01*
X65417200Y-38422697D01*
X65922350Y-38594021D01*
X66412271Y-38771045D01*
X66886647Y-38953574D01*
X67345165Y-39141416D01*
X67787509Y-39334377D01*
X68213365Y-39532262D01*
X68622420Y-39734879D01*
X69014358Y-39942034D01*
X69388865Y-40153532D01*
X69745627Y-40369181D01*
X70084329Y-40588786D01*
X70404658Y-40812154D01*
X70706298Y-41039091D01*
X70988935Y-41269404D01*
X71252255Y-41502899D01*
X71495944Y-41739382D01*
X71719686Y-41978659D01*
X71923169Y-42220537D01*
X72106077Y-42464823D01*
X72197562Y-42599783D01*
X72349687Y-42849105D01*
X72481228Y-43099452D01*
X72592108Y-43350567D01*
X72682246Y-43602195D01*
X72751565Y-43854081D01*
X72799986Y-44105969D01*
X72827431Y-44357603D01*
X72833821Y-44608730D01*
X72832405Y-44663533D01*
X72823356Y-44833632D01*
X72807996Y-44990755D01*
X72785247Y-45140394D01*
X72754029Y-45288042D01*
X72713262Y-45439190D01*
X72661867Y-45599331D01*
X72631519Y-45685395D01*
X72527393Y-45943016D01*
X72402384Y-46198145D01*
X72256644Y-46450676D01*
X72090321Y-46700502D01*
X71903565Y-46947517D01*
X71696525Y-47191615D01*
X71469352Y-47432690D01*
X71222195Y-47670636D01*
X70955204Y-47905347D01*
X70668528Y-48136717D01*
X70362317Y-48364640D01*
X70036721Y-48589009D01*
X69691890Y-48809718D01*
X69327973Y-49026662D01*
X68945119Y-49239734D01*
X68543480Y-49448829D01*
X68123203Y-49653839D01*
X67684439Y-49854660D01*
X67227338Y-50051184D01*
X66752049Y-50243306D01*
X66258722Y-50430919D01*
X65747507Y-50613919D01*
X65612991Y-50660281D01*
X65124480Y-50821902D01*
X64615779Y-50979565D01*
X64087518Y-51133104D01*
X63540331Y-51282357D01*
X62974851Y-51427159D01*
X62391710Y-51567347D01*
X61791540Y-51702755D01*
X61174974Y-51833220D01*
X60804866Y-51907592D01*
X60670772Y-51933935D01*
X60537548Y-51959940D01*
X60407434Y-51985180D01*
X60282670Y-52009229D01*
X60165495Y-52031658D01*
X60058150Y-52052041D01*
X59962873Y-52069950D01*
X59881907Y-52084958D01*
X59817489Y-52096637D01*
X59776283Y-52103820D01*
X59660094Y-52123269D01*
X59538970Y-52143304D01*
X59414661Y-52163654D01*
X59288915Y-52184046D01*
X59163478Y-52204207D01*
X59040100Y-52223866D01*
X58920528Y-52242749D01*
X58806510Y-52260585D01*
X58699796Y-52277101D01*
X58602131Y-52292025D01*
X58515265Y-52305084D01*
X58440946Y-52316006D01*
X58380922Y-52324519D01*
X58336941Y-52330350D01*
X58310750Y-52333227D01*
X58303806Y-52333257D01*
X58299872Y-52321647D01*
X58291547Y-52291754D01*
X58279418Y-52245865D01*
X58264075Y-52186269D01*
X58246105Y-52115254D01*
X58226097Y-52035109D01*
X58204638Y-51948123D01*
X58201247Y-51934283D01*
X58184867Y-51867474D01*
X58163924Y-51782210D01*
X58138935Y-51680583D01*
X58110415Y-51564686D01*
X58078879Y-51436613D01*
X58044843Y-51298455D01*
X58008823Y-51152306D01*
X57971335Y-51000259D01*
X57932893Y-50844406D01*
X57916031Y-50776066D01*
X58985970Y-50776066D01*
X58986746Y-50826236D01*
X58997855Y-50882167D01*
X59018598Y-50937932D01*
X59020223Y-50941329D01*
X59060186Y-51002586D01*
X59117281Y-51060699D01*
X59187479Y-51112786D01*
X59266745Y-51155968D01*
X59351050Y-51187363D01*
X59372525Y-51193053D01*
X59411433Y-51199415D01*
X59467701Y-51204277D01*
X59537558Y-51207384D01*
X59601871Y-51208443D01*
X59671945Y-51208328D01*
X59725822Y-51206876D01*
X59768453Y-51203667D01*
X59804787Y-51198282D01*
X59839774Y-51190303D01*
X59850504Y-51187408D01*
X59945091Y-51153568D01*
X60029771Y-51108102D01*
X60101633Y-51053146D01*
X60157772Y-50990832D01*
X60188327Y-50939450D01*
X60207927Y-50884073D01*
X60217760Y-50826069D01*
X60217497Y-50771621D01*
X60206809Y-50726913D01*
X60200310Y-50714335D01*
X60161508Y-50670879D01*
X60103891Y-50632170D01*
X60029413Y-50598873D01*
X59940030Y-50571659D01*
X59837695Y-50551193D01*
X59724365Y-50538145D01*
X59675741Y-50535121D01*
X59553513Y-50533921D01*
X59437679Y-50541771D01*
X59330309Y-50558055D01*
X59233474Y-50582154D01*
X59149244Y-50613453D01*
X59079688Y-50651335D01*
X59026878Y-50695182D01*
X58996225Y-50737588D01*
X58985970Y-50776066D01*
X57916031Y-50776066D01*
X57894015Y-50686841D01*
X57855214Y-50529656D01*
X57841418Y-50473783D01*
X57804606Y-50324342D01*
X57768893Y-50178652D01*
X57734655Y-50038283D01*
X57702266Y-49904804D01*
X57672101Y-49779786D01*
X57644538Y-49664797D01*
X57619949Y-49561407D01*
X57598711Y-49471185D01*
X57581200Y-49395702D01*
X57567789Y-49336527D01*
X57558855Y-49295229D01*
X57555478Y-49277866D01*
X57520761Y-49112881D01*
X57476584Y-48965753D01*
X57422351Y-48835117D01*
X57357463Y-48719608D01*
X57281325Y-48617862D01*
X57252957Y-48586361D01*
X57184426Y-48524434D01*
X57095135Y-48461890D01*
X56985473Y-48398976D01*
X56867857Y-48341406D01*
X56804071Y-48311876D01*
X56736777Y-48280117D01*
X56672900Y-48249435D01*
X56619367Y-48223137D01*
X56606575Y-48216705D01*
X56534369Y-48183071D01*
X56444156Y-48145905D01*
X56338625Y-48106123D01*
X56220461Y-48064647D01*
X56092351Y-48022395D01*
X55956982Y-47980286D01*
X55817041Y-47939240D01*
X55704119Y-47907926D01*
X55393510Y-47828943D01*
X55063275Y-47754342D01*
X54714530Y-47684274D01*
X54348389Y-47618894D01*
X53965966Y-47558354D01*
X53568377Y-47502808D01*
X53156737Y-47452409D01*
X52732159Y-47407310D01*
X52295760Y-47367666D01*
X51848652Y-47333628D01*
X51391953Y-47305350D01*
X51277866Y-47299274D01*
X50919660Y-47283130D01*
X50545396Y-47270662D01*
X50159448Y-47261877D01*
X49766187Y-47256782D01*
X49369989Y-47255382D01*
X48975225Y-47257684D01*
X48586270Y-47263696D01*
X48207496Y-47273423D01*
X47843277Y-47286872D01*
X47690116Y-47293905D01*
X47228260Y-47319625D01*
X46775642Y-47351154D01*
X46333346Y-47388345D01*
X45902452Y-47431048D01*
X45484043Y-47479116D01*
X45079199Y-47532400D01*
X44689004Y-47590751D01*
X44314538Y-47654022D01*
X43956884Y-47722064D01*
X43617123Y-47794728D01*
X43296337Y-47871867D01*
X43104157Y-47922782D01*
X42996764Y-47953237D01*
X42887247Y-47985957D01*
X42778247Y-48020031D01*
X42672403Y-48054551D01*
X42572355Y-48088606D01*
X42480743Y-48121287D01*
X42400206Y-48151684D01*
X42333384Y-48178888D01*
X42282918Y-48201989D01*
X42263201Y-48212551D01*
X42237502Y-48226280D01*
X42196587Y-48246638D01*
X42144576Y-48271645D01*
X42085589Y-48299316D01*
X42028033Y-48325726D01*
X41962096Y-48356720D01*
X41895573Y-48389889D01*
X41833759Y-48422458D01*
X41781955Y-48451653D01*
X41751774Y-48470386D01*
X41656479Y-48543218D01*
X41572934Y-48627551D01*
X41500433Y-48724711D01*
X41438268Y-48836024D01*
X41385734Y-48962814D01*
X41342122Y-49106408D01*
X41306727Y-49268131D01*
X41297154Y-49323121D01*
X41291972Y-49349384D01*
X41281982Y-49394829D01*
X41267508Y-49458102D01*
X41248878Y-49537850D01*
X41226417Y-49632721D01*
X41200452Y-49741360D01*
X41171307Y-49862416D01*
X41139309Y-49994534D01*
X41104785Y-50136363D01*
X41068059Y-50286548D01*
X41029459Y-50443737D01*
X40989309Y-50606577D01*
X40947937Y-50773715D01*
X40938914Y-50810079D01*
X40897475Y-50977030D01*
X40857193Y-51139354D01*
X40818390Y-51295751D01*
X40781388Y-51444925D01*
X40746508Y-51585577D01*
X40714072Y-51716409D01*
X40684402Y-51836125D01*
X40657819Y-51943425D01*
X40634645Y-52037012D01*
X40615201Y-52115588D01*
X40599810Y-52177855D01*
X40588792Y-52222516D01*
X40582470Y-52248273D01*
X40581629Y-52251737D01*
X40568046Y-52300267D01*
X40555523Y-52329276D01*
X40545852Y-52337967D01*
X40532442Y-52336663D01*
X40500373Y-52332281D01*
X40451873Y-52325160D01*
X40389171Y-52315641D01*
X40314495Y-52304066D01*
X40230075Y-52290774D01*
X40138140Y-52276108D01*
X40080700Y-52266854D01*
X39891336Y-52236180D01*
X39720348Y-52208334D01*
X39565199Y-52182865D01*
X39423355Y-52159324D01*
X39292279Y-52137258D01*
X39169435Y-52116219D01*
X39052288Y-52095755D01*
X38938302Y-52075416D01*
X38824941Y-52054751D01*
X38709670Y-52033309D01*
X38589953Y-52010641D01*
X38463253Y-51986295D01*
X38327036Y-51959821D01*
X38178766Y-51930768D01*
X38081658Y-51911655D01*
X37503283Y-51794437D01*
X36944517Y-51674572D01*
X36403926Y-51551689D01*
X35880075Y-51425417D01*
X35371530Y-51295385D01*
X34876857Y-51161222D01*
X34394621Y-51022558D01*
X33923387Y-50879022D01*
X33671709Y-50797915D01*
X38579483Y-50797915D01*
X38587203Y-50851532D01*
X38599142Y-50894978D01*
X38633155Y-50969849D01*
X38685917Y-51037353D01*
X38755867Y-51096089D01*
X38841446Y-51144657D01*
X38906230Y-51170634D01*
X38943958Y-51183527D01*
X38973834Y-51192937D01*
X39000325Y-51199436D01*
X39027897Y-51203602D01*
X39061014Y-51206008D01*
X39104143Y-51207229D01*
X39161748Y-51207841D01*
X39197204Y-51208097D01*
X39266972Y-51208137D01*
X39320539Y-51206832D01*
X39362847Y-51203771D01*
X39398841Y-51198542D01*
X39433465Y-51190733D01*
X39445837Y-51187408D01*
X39540425Y-51153568D01*
X39625104Y-51108102D01*
X39696967Y-51053146D01*
X39753105Y-50990832D01*
X39783660Y-50939450D01*
X39803260Y-50884073D01*
X39813093Y-50826069D01*
X39812831Y-50771621D01*
X39802143Y-50726913D01*
X39795643Y-50714335D01*
X39755984Y-50669826D01*
X39698772Y-50631477D01*
X39626728Y-50599373D01*
X39542574Y-50573597D01*
X39449034Y-50554232D01*
X39348828Y-50541364D01*
X39244680Y-50535075D01*
X39139310Y-50535450D01*
X39035443Y-50542573D01*
X38935798Y-50556527D01*
X38843100Y-50577396D01*
X38760069Y-50605265D01*
X38689428Y-50640216D01*
X38637775Y-50678649D01*
X38603947Y-50716078D01*
X38584790Y-50754298D01*
X38579483Y-50797915D01*
X33671709Y-50797915D01*
X33461722Y-50730244D01*
X33296783Y-50675056D01*
X32788864Y-50498064D01*
X32297460Y-50315967D01*
X31822798Y-50128917D01*
X31365108Y-49937065D01*
X30924616Y-49740562D01*
X30501553Y-49539561D01*
X30096146Y-49334212D01*
X29708624Y-49124668D01*
X29339215Y-48911079D01*
X28988148Y-48693598D01*
X28655651Y-48472375D01*
X28341953Y-48247563D01*
X28047282Y-48019313D01*
X27771867Y-47787776D01*
X27515936Y-47553104D01*
X27279718Y-47315448D01*
X27063440Y-47074961D01*
X26867333Y-46831793D01*
X26691623Y-46586096D01*
X26576454Y-46401869D01*
X31965459Y-46401869D01*
X31971839Y-46470230D01*
X31990324Y-46545055D01*
X32020061Y-46621556D01*
X32022183Y-46626092D01*
X32047413Y-46673461D01*
X32077324Y-46716026D01*
X32117022Y-46760601D01*
X32141185Y-46784842D01*
X32234402Y-46862751D01*
X32340128Y-46925858D01*
X32459799Y-46974860D01*
X32594852Y-47010456D01*
X32612103Y-47013849D01*
X32657730Y-47019679D01*
X32718780Y-47023431D01*
X32790396Y-47025197D01*
X32867715Y-47025072D01*
X32945880Y-47023148D01*
X33020030Y-47019518D01*
X33085306Y-47014275D01*
X33136847Y-47007512D01*
X33156612Y-47003424D01*
X33281307Y-46964347D01*
X33394752Y-46913156D01*
X33495038Y-46851177D01*
X33580253Y-46779738D01*
X33648488Y-46700164D01*
X33688230Y-46634236D01*
X33711120Y-46579913D01*
X33729857Y-46519245D01*
X33742959Y-46458809D01*
X33748947Y-46405183D01*
X33748543Y-46395465D01*
X65057366Y-46395465D01*
X65067554Y-46496717D01*
X65097277Y-46592808D01*
X65145279Y-46682533D01*
X65210301Y-46764684D01*
X65291085Y-46838054D01*
X65386374Y-46901437D01*
X65494908Y-46953625D01*
X65615431Y-46993412D01*
X65700197Y-47012160D01*
X65754981Y-47019296D01*
X65824698Y-47024286D01*
X65903214Y-47027059D01*
X65984398Y-47027542D01*
X66062116Y-47025663D01*
X66130237Y-47021352D01*
X66163848Y-47017582D01*
X66278832Y-46994139D01*
X66390332Y-46957201D01*
X66494747Y-46908645D01*
X66588480Y-46850350D01*
X66667931Y-46784196D01*
X66717533Y-46728532D01*
X66768989Y-46649575D01*
X66806317Y-46567623D01*
X66828847Y-46485882D01*
X66835910Y-46407555D01*
X66826837Y-46335848D01*
X66809331Y-46288910D01*
X66768339Y-46230222D01*
X66708561Y-46176795D01*
X66631839Y-46129151D01*
X66540015Y-46087808D01*
X66434931Y-46053289D01*
X66318432Y-46026114D01*
X66192358Y-46006804D01*
X66058552Y-45995880D01*
X65918857Y-45993862D01*
X65787985Y-46000220D01*
X65643518Y-46016319D01*
X65512850Y-46040505D01*
X65396849Y-46072310D01*
X65296381Y-46111266D01*
X65212313Y-46156902D01*
X65145511Y-46208750D01*
X65096842Y-46266342D01*
X65067173Y-46329208D01*
X65057366Y-46395465D01*
X33748543Y-46395465D01*
X33747525Y-46371011D01*
X33725688Y-46300616D01*
X33683826Y-46236620D01*
X33622128Y-46179141D01*
X33540782Y-46128297D01*
X33439976Y-46084205D01*
X33319898Y-46046983D01*
X33180738Y-46016750D01*
X33180366Y-46016683D01*
X33126010Y-46009507D01*
X33055580Y-46004032D01*
X32974108Y-46000300D01*
X32886620Y-45998352D01*
X32798147Y-45998232D01*
X32713717Y-45999981D01*
X32638360Y-46003642D01*
X32577104Y-46009257D01*
X32561241Y-46011482D01*
X32424384Y-46038219D01*
X32303931Y-46072645D01*
X32200563Y-46114374D01*
X32114960Y-46163022D01*
X32047802Y-46218203D01*
X31999771Y-46279534D01*
X31972038Y-46344759D01*
X31965459Y-46401869D01*
X26576454Y-46401869D01*
X26536539Y-46338021D01*
X26413188Y-46109649D01*
X26356868Y-45991502D01*
X26301599Y-45865265D01*
X26249329Y-45735993D01*
X26202007Y-45608736D01*
X26161580Y-45488547D01*
X26129997Y-45380479D01*
X26125739Y-45364039D01*
X26071780Y-45108548D01*
X26038795Y-44851078D01*
X26026784Y-44592516D01*
X26035751Y-44333753D01*
X26065697Y-44075676D01*
X26116623Y-43819177D01*
X26122360Y-43795700D01*
X26165881Y-43635877D01*
X26215992Y-43482475D01*
X26274770Y-43330108D01*
X26344291Y-43173392D01*
X26425700Y-43008740D01*
X26570821Y-42749478D01*
X26736831Y-42493437D01*
X26923693Y-42240649D01*
X26930638Y-42232305D01*
X37523184Y-42232305D01*
X37524845Y-42299400D01*
X37534791Y-42361756D01*
X37568796Y-42478076D01*
X37621400Y-42585117D01*
X37691896Y-42682276D01*
X37779576Y-42768949D01*
X37883732Y-42844532D01*
X38003656Y-42908420D01*
X38138641Y-42960011D01*
X38279257Y-42996887D01*
X38338157Y-43006033D01*
X38413212Y-43012727D01*
X38499553Y-43016971D01*
X38592311Y-43018770D01*
X38686618Y-43018128D01*
X38777604Y-43015048D01*
X38860402Y-43009534D01*
X38930142Y-43001591D01*
X38960403Y-42996345D01*
X39106878Y-42958334D01*
X39240041Y-42907085D01*
X39358971Y-42843346D01*
X39462743Y-42767863D01*
X39550436Y-42681384D01*
X39621127Y-42584656D01*
X39673893Y-42478426D01*
X39699996Y-42397541D01*
X39717325Y-42310912D01*
X39720345Y-42241205D01*
X59087194Y-42241205D01*
X59087783Y-42300016D01*
X59093927Y-42358273D01*
X59099263Y-42385660D01*
X59122544Y-42459203D01*
X59157778Y-42537837D01*
X59200739Y-42613008D01*
X59236202Y-42662867D01*
X59310308Y-42741213D01*
X59401748Y-42813383D01*
X59507138Y-42877545D01*
X59623093Y-42931864D01*
X59746231Y-42974506D01*
X59860950Y-43001484D01*
X59908144Y-43007557D01*
X59971854Y-43012163D01*
X60047475Y-43015298D01*
X60130407Y-43016956D01*
X60216048Y-43017133D01*
X60299796Y-43015824D01*
X60377049Y-43013025D01*
X60443205Y-43008731D01*
X60493663Y-43002938D01*
X60498491Y-43002133D01*
X60582985Y-42983123D01*
X60675445Y-42955168D01*
X60766458Y-42921405D01*
X60839908Y-42888367D01*
X60949789Y-42823607D01*
X61046056Y-42746949D01*
X61127442Y-42660221D01*
X61192678Y-42565248D01*
X61240499Y-42463856D01*
X61269636Y-42357873D01*
X61278856Y-42255825D01*
X61268645Y-42179524D01*
X61238342Y-42107786D01*
X61188621Y-42041083D01*
X61120157Y-41979890D01*
X61033627Y-41924678D01*
X60929705Y-41875923D01*
X60809067Y-41834096D01*
X60672387Y-41799672D01*
X60611004Y-41787651D01*
X60568765Y-41780420D01*
X60529384Y-41774807D01*
X60489277Y-41770615D01*
X60444858Y-41767644D01*
X60392542Y-41765696D01*
X60328744Y-41764572D01*
X60249877Y-41764075D01*
X60183741Y-41763993D01*
X60091800Y-41764179D01*
X60017470Y-41764866D01*
X59957198Y-41766246D01*
X59907432Y-41768514D01*
X59864618Y-41771861D01*
X59825203Y-41776481D01*
X59785634Y-41782566D01*
X59760408Y-41786990D01*
X59611775Y-41819440D01*
X59480018Y-41859760D01*
X59365729Y-41907622D01*
X59269506Y-41962697D01*
X59191941Y-42024659D01*
X59133630Y-42093178D01*
X59102316Y-42149991D01*
X59092069Y-42188858D01*
X59087194Y-42241205D01*
X39720345Y-42241205D01*
X39720526Y-42237033D01*
X39708736Y-42172160D01*
X39681092Y-42112549D01*
X39636732Y-42054455D01*
X39615906Y-42032592D01*
X39534475Y-41964985D01*
X39434706Y-41906489D01*
X39317484Y-41857347D01*
X39183689Y-41817803D01*
X39034205Y-41788098D01*
X38869913Y-41768477D01*
X38691697Y-41759182D01*
X38620200Y-41758408D01*
X38450538Y-41763209D01*
X38291169Y-41777339D01*
X38143316Y-41800384D01*
X38008200Y-41831932D01*
X37887045Y-41871569D01*
X37781073Y-41918884D01*
X37691506Y-41973463D01*
X37619568Y-42034894D01*
X37566480Y-42102763D01*
X37558318Y-42116915D01*
X37534171Y-42173257D01*
X37523184Y-42232305D01*
X26930638Y-42232305D01*
X27131371Y-41991143D01*
X27359828Y-41744950D01*
X27609029Y-41502101D01*
X27878937Y-41262627D01*
X28169516Y-41026558D01*
X28241361Y-40972853D01*
X48125869Y-40972853D01*
X48132109Y-41062524D01*
X48143658Y-41110140D01*
X48181792Y-41200355D01*
X48239316Y-41286513D01*
X48314687Y-41367700D01*
X48406363Y-41443003D01*
X48512800Y-41511506D01*
X48632457Y-41572297D01*
X48763791Y-41624462D01*
X48905259Y-41667086D01*
X49055319Y-41699256D01*
X49164642Y-41715064D01*
X49237356Y-41721046D01*
X49324134Y-41724264D01*
X49418063Y-41724775D01*
X49512229Y-41722642D01*
X49599718Y-41717922D01*
X49673617Y-41710676D01*
X49673683Y-41710667D01*
X49830722Y-41683799D01*
X49979344Y-41645930D01*
X50118039Y-41597951D01*
X50245297Y-41540752D01*
X50359609Y-41475223D01*
X50459466Y-41402253D01*
X50543357Y-41322732D01*
X50609774Y-41237551D01*
X50657206Y-41147599D01*
X50665373Y-41126040D01*
X50681011Y-41056893D01*
X50684671Y-40978938D01*
X50676738Y-40900475D01*
X50657599Y-40829806D01*
X50650838Y-40813739D01*
X50595959Y-40719221D01*
X50521982Y-40631263D01*
X50430149Y-40550567D01*
X50321702Y-40477832D01*
X50197883Y-40413758D01*
X50059932Y-40359044D01*
X49909092Y-40314392D01*
X49746604Y-40280500D01*
X49689128Y-40271581D01*
X49612955Y-40263585D01*
X49522356Y-40258587D01*
X49423862Y-40256595D01*
X49324001Y-40257614D01*
X49229302Y-40261652D01*
X49146295Y-40268717D01*
X49128006Y-40270974D01*
X48974424Y-40297337D01*
X48830287Y-40333789D01*
X48696613Y-40379464D01*
X48574417Y-40433494D01*
X48464718Y-40495013D01*
X48368530Y-40563154D01*
X48286873Y-40637051D01*
X48220761Y-40715835D01*
X48171212Y-40798642D01*
X48139242Y-40884603D01*
X48125869Y-40972853D01*
X28241361Y-40972853D01*
X28480730Y-40793924D01*
X28812542Y-40564756D01*
X29164916Y-40339086D01*
X29537816Y-40116942D01*
X29931205Y-39898357D01*
X30345048Y-39683360D01*
X30402241Y-39654732D01*
X30826053Y-39450109D01*
X31263652Y-39251874D01*
X31715998Y-39059660D01*
X32184050Y-38873101D01*
X32668769Y-38691831D01*
X33171113Y-38515483D01*
X33692042Y-38343692D01*
X34232517Y-38176090D01*
X34427146Y-38118154D01*
X34529110Y-38088066D01*
X34624772Y-38059730D01*
X34712242Y-38033715D01*
X34789629Y-38010588D01*
X34855040Y-37990916D01*
X34906586Y-37975268D01*
X34942374Y-37964210D01*
X34960513Y-37958311D01*
X34962409Y-37957517D01*
X35194083Y-37662915D01*
X35433733Y-37387678D01*
X35681928Y-37131339D01*
X35939236Y-36893433D01*
X36206226Y-36673496D01*
X36483467Y-36471063D01*
X36771528Y-36285668D01*
X37070978Y-36116847D01*
X37382385Y-35964135D01*
X37424283Y-35945215D01*
X37477518Y-35921783D01*
X37527429Y-35900815D01*
X37576457Y-35881560D01*
X37627043Y-35863268D01*
X37681626Y-35845188D01*
X37742648Y-35826570D01*
X37812550Y-35806664D01*
X37893772Y-35784718D01*
X37988754Y-35759983D01*
X38099938Y-35731709D01*
X38202158Y-35706044D01*
X39008589Y-35513459D01*
X39825822Y-35336475D01*
X40654603Y-35174963D01*
X41495676Y-35028790D01*
X42349788Y-34897824D01*
X43217685Y-34781935D01*
X43874825Y-34705192D01*
X43967702Y-34695045D01*
X44053384Y-34685808D01*
X44135320Y-34677131D01*
X44216962Y-34668664D01*
X44301762Y-34660058D01*
X44393170Y-34650963D01*
X44494638Y-34641030D01*
X44609618Y-34629909D01*
X44741560Y-34617250D01*
X44769116Y-34614615D01*
X44936589Y-34599253D01*
X45121641Y-34583443D01*
X45320693Y-34567437D01*
X45530169Y-34551488D01*
X45746493Y-34535849D01*
X45966086Y-34520772D01*
X46185373Y-34506511D01*
X46400775Y-34493318D01*
X46608717Y-34481445D01*
X46785241Y-34472162D01*
X47007752Y-34461245D01*
X47215960Y-34451595D01*
X47412784Y-34443144D01*
X47601140Y-34435823D01*
X47783947Y-34429562D01*
X47964123Y-34424292D01*
X48144583Y-34419944D01*
X48328247Y-34416450D01*
X48518032Y-34413739D01*
X48716855Y-34411742D01*
X48927634Y-34410392D01*
X49153287Y-34409617D01*
X49396731Y-34409350D01*
X49436366Y-34409350D01*
X49699758Y-34409678D01*
G37*
%TD.AperFunction*%
%TD*%
D12*
%TO.P,D4,1,VSS*%
%TO.N,GND*%
X34825000Y-90375000D03*
%TO.P,D4,2,DIN*%
%TO.N,/D3-DOUT*%
X34825000Y-91875000D03*
%TO.P,D4,3,VDD*%
%TO.N,+3V3*%
X37825000Y-91875000D03*
%TO.P,D4,4,DOUT*%
%TO.N,unconnected-(D4-DOUT-Pad4)*%
X37825000Y-90375000D03*
%TD*%
%TO.P,D3,1,VSS*%
%TO.N,GND*%
X59150000Y-83325000D03*
%TO.P,D3,2,DIN*%
%TO.N,/D2-DOUT*%
X59150000Y-84825000D03*
%TO.P,D3,3,VDD*%
%TO.N,+3V3*%
X62150000Y-84825000D03*
%TO.P,D3,4,DOUT*%
%TO.N,/D3-DOUT*%
X62150000Y-83325000D03*
%TD*%
%TO.P,D2,1,VSS*%
%TO.N,GND*%
X41775000Y-61250000D03*
%TO.P,D2,2,DIN*%
%TO.N,/D1-DOUT*%
X41775000Y-62750000D03*
%TO.P,D2,3,VDD*%
%TO.N,+3V3*%
X44775000Y-62750000D03*
%TO.P,D2,4,DOUT*%
%TO.N,/D2-DOUT*%
X44775000Y-61250000D03*
%TD*%
%TO.P,D1,1,VSS*%
%TO.N,GND*%
X52900000Y-55300000D03*
%TO.P,D1,2,DIN*%
%TO.N,/IO2*%
X52900000Y-56800000D03*
%TO.P,D1,3,VDD*%
%TO.N,+3V3*%
X55900000Y-56800000D03*
%TO.P,D1,4,DOUT*%
%TO.N,/D1-DOUT*%
X55900000Y-55300000D03*
%TD*%
D13*
%TO.N,/D1-DOUT*%
X42675000Y-62750000D03*
%TO.N,GND*%
X36000000Y-90600000D03*
%TO.N,/D3-DOUT*%
X35900000Y-91700000D03*
%TO.N,+3V3*%
X36700000Y-91700000D03*
%TO.N,/D3-DOUT*%
X61000000Y-83500000D03*
%TO.N,GND*%
X60200000Y-83450000D03*
%TO.N,+3V3*%
X61000000Y-84800000D03*
%TO.N,/D2-DOUT*%
X60201562Y-84750000D03*
%TO.N,+3V3*%
X43846165Y-62184943D03*
%TO.N,GND*%
X42900000Y-61300000D03*
%TO.N,/D2-DOUT*%
X43700003Y-61300000D03*
%TO.N,/IO2*%
X53800000Y-56800000D03*
%TO.N,+3V3*%
X54825000Y-56800000D03*
%TO.N,/D1-DOUT*%
X55000000Y-55300000D03*
%TO.N,GND*%
X53975000Y-55325000D03*
%TD*%
D14*
%TO.N,/IO2*%
X53800000Y-56800000D02*
X52900000Y-56800000D01*
D15*
%TO.N,+3V3*%
X43846165Y-62184943D02*
X43934943Y-62184943D01*
X43934943Y-62184943D02*
X44500000Y-62750000D01*
X44500000Y-62750000D02*
X44775000Y-62750000D01*
D14*
%TO.N,/D2-DOUT*%
X43700003Y-61300000D02*
X43750003Y-61250000D01*
X43750003Y-61250000D02*
X44775000Y-61250000D01*
D15*
%TO.N,GND*%
X42900000Y-61300000D02*
X42850000Y-61250000D01*
X42850000Y-61250000D02*
X41775000Y-61250000D01*
%TO.N,/D1-DOUT*%
X55000000Y-55300000D02*
X55900000Y-55300000D01*
%TO.N,/D2-DOUT*%
X60201562Y-84750000D02*
X60126562Y-84825000D01*
X60126562Y-84825000D02*
X59150000Y-84825000D01*
D14*
%TO.N,GND*%
X59150000Y-83325000D02*
X60075000Y-83325000D01*
X60075000Y-83325000D02*
X60200000Y-83450000D01*
X36000000Y-90600000D02*
X35050000Y-90600000D01*
X35050000Y-90600000D02*
X34825000Y-90375000D01*
%TO.N,/D3-DOUT*%
X35900000Y-91700000D02*
X35000000Y-91700000D01*
X35000000Y-91700000D02*
X34825000Y-91875000D01*
%TO.N,+3V3*%
X36700000Y-91700000D02*
X37650000Y-91700000D01*
X37650000Y-91700000D02*
X37825000Y-91875000D01*
%TO.N,/D3-DOUT*%
X61175000Y-83325000D02*
X61000000Y-83500000D01*
X62150000Y-83325000D02*
X61175000Y-83325000D01*
%TO.N,+3V3*%
X61000000Y-84800000D02*
X62125000Y-84800000D01*
X62125000Y-84800000D02*
X62150000Y-84825000D01*
%TO.N,/D1-DOUT*%
X42650000Y-62750000D02*
X41775000Y-62750000D01*
D15*
%TO.N,+3V3*%
X54825000Y-56800000D02*
X55900000Y-56800000D01*
%TO.N,GND*%
X53975000Y-55325000D02*
X54000000Y-55300000D01*
X54000000Y-55300000D02*
X52900000Y-55300000D01*
%TD*%
M02*
