%TF.GenerationSoftware,KiCad,Pcbnew,9.99.0-unknown-1.20250504git96522c4.fc41*%
%TF.CreationDate,2025-06-08T18:15:19+01:00*%
%TF.ProjectId,tr25-sao-r1,74723235-2d73-4616-9f2d-72312e6b6963,rev?*%
%TF.SameCoordinates,Original*%
%TF.FileFunction,Copper,L2,Bot*%
%TF.FilePolarity,Positive*%
%FSLAX46Y46*%
G04 Gerber Fmt 4.6, Leading zero omitted, Abs format (unit mm)*
G04 Created by KiCad (PCBNEW 9.99.0-unknown-1.20250504git96522c4.fc41) date 2025-06-08 18:15:19*
%MOMM*%
%LPD*%
G01*
G04 APERTURE LIST*
G04 Aperture macros list*
%AMRoundRect*
0 Rectangle with rounded corners*
0 $1 Rounding radius*
0 $2 $3 $4 $5 $6 $7 $8 $9 X,Y pos of 4 corners*
0 Add a 4 corners polygon primitive as box body*
4,1,4,$2,$3,$4,$5,$6,$7,$8,$9,$2,$3,0*
0 Add four circle primitives for the rounded corners*
1,1,$1+$1,$2,$3*
1,1,$1+$1,$4,$5*
1,1,$1+$1,$6,$7*
1,1,$1+$1,$8,$9*
0 Add four rect primitives between the rounded corners*
20,1,$1+$1,$2,$3,$4,$5,0*
20,1,$1+$1,$4,$5,$6,$7,0*
20,1,$1+$1,$6,$7,$8,$9,0*
20,1,$1+$1,$8,$9,$2,$3,0*%
G04 Aperture macros list end*
%TA.AperFunction,SMDPad,CuDef*%
%ADD10RoundRect,0.250000X-0.625000X0.312500X-0.625000X-0.312500X0.625000X-0.312500X0.625000X0.312500X0*%
%TD*%
%TA.AperFunction,SMDPad,CuDef*%
%ADD11RoundRect,0.250000X0.312500X0.625000X-0.312500X0.625000X-0.312500X-0.625000X0.312500X-0.625000X0*%
%TD*%
%TA.AperFunction,SMDPad,CuDef*%
%ADD12R,1.000000X3.150000*%
%TD*%
%TA.AperFunction,ViaPad*%
%ADD13C,0.600000*%
%TD*%
%TA.AperFunction,Conductor*%
%ADD14C,0.300000*%
%TD*%
%TA.AperFunction,Conductor*%
%ADD15C,0.200000*%
%TD*%
G04 APERTURE END LIST*
D10*
%TO.P,R2,1*%
%TO.N,/IO2*%
X56300000Y-63862500D03*
%TO.P,R2,2*%
%TO.N,/IO1*%
X56300000Y-66787500D03*
%TD*%
D11*
%TO.P,R1,1*%
%TO.N,GND*%
X54212500Y-59725000D03*
%TO.P,R1,2*%
%TO.N,/IO2*%
X51287500Y-59725000D03*
%TD*%
D12*
%TO.P,J1,1,Pin_1*%
%TO.N,+3V3*%
X46860000Y-68575000D03*
%TO.P,J1,2,Pin_2*%
%TO.N,GND*%
X46860000Y-73625000D03*
%TO.P,J1,3,Pin_3*%
%TO.N,unconnected-(J1-Pin_3-Pad3)*%
X49400000Y-68575000D03*
%TO.P,J1,4,Pin_4*%
%TO.N,unconnected-(J1-Pin_4-Pad4)*%
X49400000Y-73625000D03*
%TO.P,J1,5,Pin_5*%
%TO.N,/IO1*%
X51940000Y-68575000D03*
%TO.P,J1,6,Pin_6*%
%TO.N,/IO2*%
X51940000Y-73625000D03*
%TD*%
D13*
%TO.N,/D1-DOUT*%
X42675000Y-62750000D03*
%TO.N,GND*%
X36000000Y-90600000D03*
%TO.N,/D3-DOUT*%
X35900000Y-91700000D03*
%TO.N,+3V3*%
X36700000Y-91700000D03*
%TO.N,/D3-DOUT*%
X61000000Y-83500000D03*
%TO.N,GND*%
X60200000Y-83450000D03*
%TO.N,+3V3*%
X61000000Y-84800000D03*
%TO.N,/D2-DOUT*%
X60201562Y-84750000D03*
%TO.N,+3V3*%
X43846165Y-62184943D03*
%TO.N,GND*%
X42900000Y-61300000D03*
%TO.N,/D2-DOUT*%
X43700003Y-61300000D03*
%TO.N,/IO2*%
X53800000Y-56800000D03*
%TO.N,+3V3*%
X54825000Y-56800000D03*
%TO.N,/D1-DOUT*%
X55000000Y-55300000D03*
%TO.N,GND*%
X53975000Y-55325000D03*
%TD*%
D14*
%TO.N,/D3-DOUT*%
X61000000Y-83500000D02*
X61651000Y-84151000D01*
X61651000Y-84151000D02*
X61651000Y-86949000D01*
X61651000Y-86949000D02*
X55900000Y-92700000D01*
X55900000Y-92700000D02*
X36779346Y-92700000D01*
X36779346Y-92700000D02*
X35900000Y-91820654D01*
X35900000Y-91820654D02*
X35900000Y-91700000D01*
%TO.N,+3V3*%
X46860000Y-68575000D02*
X45525000Y-68575000D01*
X45525000Y-68575000D02*
X44100000Y-70000000D01*
X44100000Y-70000000D02*
X44100000Y-78800000D01*
X49400000Y-84100000D02*
X60700000Y-84100000D01*
X44100000Y-78800000D02*
X49400000Y-84100000D01*
X60700000Y-84100000D02*
X61000000Y-84400000D01*
X61000000Y-84400000D02*
X61000000Y-84800000D01*
%TO.N,/IO2*%
X51287500Y-59725000D02*
X51300000Y-59737500D01*
X51300000Y-59737500D02*
X51300000Y-63862500D01*
X51940000Y-73625000D02*
X51940000Y-75760000D01*
X51300000Y-76400000D02*
X45800000Y-76400000D01*
X46000000Y-71100000D02*
X47400000Y-71100000D01*
X51940000Y-75760000D02*
X51300000Y-76400000D01*
X48100000Y-66300000D02*
X50537500Y-63862500D01*
X45800000Y-76400000D02*
X44800000Y-75400000D01*
X47400000Y-71100000D02*
X48100000Y-70400000D01*
X50537500Y-63862500D02*
X51537500Y-63862500D01*
X44800000Y-75400000D02*
X44800000Y-72300000D01*
X44800000Y-72300000D02*
X46000000Y-71100000D01*
X48100000Y-70400000D02*
X48100000Y-66300000D01*
%TO.N,/D1-DOUT*%
X55000000Y-55300000D02*
X55000000Y-54900000D01*
X55000000Y-54900000D02*
X54600000Y-54500000D01*
X54600000Y-54500000D02*
X46550058Y-54500000D01*
X46550058Y-54500000D02*
X41950000Y-59100058D01*
X41950000Y-59100058D02*
X41950000Y-62050000D01*
X41950000Y-62050000D02*
X42650000Y-62750000D01*
%TO.N,+3V3*%
X44363235Y-62111765D02*
X44550000Y-61925000D01*
X44550000Y-61925000D02*
X44550000Y-59350000D01*
X44550000Y-59350000D02*
X47751000Y-56149000D01*
X47751000Y-56149000D02*
X54146826Y-56149000D01*
X54146826Y-56149000D02*
X54797827Y-56800000D01*
X54797827Y-56800000D02*
X54825000Y-56800000D01*
%TO.N,GND*%
X53975000Y-55325000D02*
X54025000Y-55325000D01*
X54025000Y-55325000D02*
X54348000Y-55648000D01*
X55250000Y-56000000D02*
X55600000Y-56350000D01*
X54348000Y-55648000D02*
X54354348Y-55648000D01*
X54706347Y-56000000D02*
X55250000Y-56000000D01*
X54354348Y-55648000D02*
X54354347Y-55648000D01*
X55600000Y-56350000D02*
X55600000Y-58337500D01*
X54354348Y-55648000D02*
X54647827Y-55941479D01*
X54647827Y-55941479D02*
X54647827Y-55941480D01*
X55600000Y-58337500D02*
X54212500Y-59725000D01*
X54647827Y-55941480D02*
X54706347Y-56000000D01*
%TO.N,/IO2*%
X53800000Y-56800000D02*
X53800000Y-56975000D01*
X53800000Y-56975000D02*
X51287500Y-59487500D01*
X51287500Y-59487500D02*
X51287500Y-59725000D01*
D15*
%TO.N,+3V3*%
X43846165Y-62184943D02*
X43846165Y-62129220D01*
X43846165Y-62129220D02*
X43863620Y-62111765D01*
X43863620Y-62111765D02*
X44363235Y-62111765D01*
%TO.N,/D2-DOUT*%
X43700003Y-61300000D02*
X43700003Y-61424997D01*
X43700003Y-61424997D02*
X43614235Y-61510765D01*
X43614235Y-61510765D02*
X43612822Y-61510765D01*
X43612822Y-61510765D02*
X43200000Y-61923587D01*
X43200000Y-61923587D02*
X43200000Y-62425057D01*
X43200000Y-62425057D02*
X43525000Y-62750057D01*
D14*
X60126562Y-84825000D02*
X48775000Y-84825000D01*
X60201562Y-84750000D02*
X60126562Y-84825000D01*
X48775000Y-84825000D02*
X43525000Y-79575000D01*
X43525000Y-79575000D02*
X43525000Y-62750057D01*
%TO.N,GND*%
X42675000Y-59225000D02*
X46575000Y-55325000D01*
X42900000Y-61300000D02*
X42675000Y-61075000D01*
X42675000Y-61075000D02*
X42675000Y-59225000D01*
X46575000Y-55325000D02*
X53975000Y-55325000D01*
X36100000Y-93300000D02*
X35200000Y-92400000D01*
X56300000Y-93300000D02*
X49800000Y-93300000D01*
X62400000Y-83979346D02*
X62400000Y-87200000D01*
X61269654Y-82849000D02*
X62400000Y-83979346D01*
X60730346Y-82849000D02*
X61269654Y-82849000D01*
X35200000Y-92400000D02*
X35200000Y-91400000D01*
X49800000Y-93300000D02*
X36100000Y-93300000D01*
X60200000Y-83379346D02*
X60730346Y-82849000D01*
X60200000Y-83450000D02*
X60200000Y-83379346D01*
X62400000Y-87200000D02*
X56300000Y-93300000D01*
X35200000Y-91400000D02*
X36000000Y-90600000D01*
%TO.N,+3V3*%
X36800000Y-91800000D02*
X36700000Y-91700000D01*
X55800000Y-91800000D02*
X36800000Y-91800000D01*
X56000000Y-91600000D02*
X55800000Y-91800000D01*
X61000000Y-84800000D02*
X61000000Y-86600000D01*
X61000000Y-86600000D02*
X56000000Y-91600000D01*
%TO.N,GND*%
X60200000Y-83450000D02*
X60100000Y-83350000D01*
X57950000Y-83350000D02*
X56100000Y-81500000D01*
X60100000Y-83350000D02*
X57950000Y-83350000D01*
X56100000Y-81500000D02*
X56100000Y-72800000D01*
X56100000Y-72800000D02*
X54300000Y-71000000D01*
X54300000Y-71000000D02*
X51100000Y-71000000D01*
X51100000Y-71000000D02*
X50600000Y-70500000D01*
X54212500Y-59725000D02*
X57825000Y-63337500D01*
X57825000Y-63337500D02*
X57825000Y-64750000D01*
X57825000Y-64750000D02*
X56701000Y-65874000D01*
X56701000Y-65874000D02*
X51726000Y-65874000D01*
X51726000Y-65874000D02*
X50600000Y-67000000D01*
X50600000Y-67000000D02*
X50600000Y-70500000D01*
X50600000Y-70500000D02*
X49800000Y-71300000D01*
X46900000Y-72500000D02*
X46900000Y-73585000D01*
X49800000Y-71300000D02*
X48100000Y-71300000D01*
X48100000Y-71300000D02*
X46900000Y-72500000D01*
X46900000Y-73585000D02*
X46860000Y-73625000D01*
%TO.N,/IO2*%
X54200000Y-63862500D02*
X56300000Y-63862500D01*
X51537500Y-63862500D02*
X54200000Y-63862500D01*
%TO.N,+3V3*%
X46860000Y-68575000D02*
X46860000Y-64608530D01*
X46860000Y-64608530D02*
X44363235Y-62111765D01*
%TO.N,/IO1*%
X51940000Y-68575000D02*
X54512500Y-68575000D01*
X54512500Y-68575000D02*
X56300000Y-66787500D01*
%TD*%
M02*
