%TF.GenerationSoftware,KiCad,Pcbnew,9.99.0-unknown-1.20250504git96522c4.fc41*%
%TF.CreationDate,2025-06-08T18:15:19+01:00*%
%TF.ProjectId,tr25-sao-r1,74723235-2d73-4616-9f2d-72312e6b6963,rev?*%
%TF.SameCoordinates,Original*%
%TF.FileFunction,Profile,NP*%
%FSLAX46Y46*%
G04 Gerber Fmt 4.6, Leading zero omitted, Abs format (unit mm)*
G04 Created by KiCad (PCBNEW 9.99.0-unknown-1.20250504git96522c4.fc41) date 2025-06-08 18:15:19*
%MOMM*%
%LPD*%
G01*
G04 APERTURE LIST*
%TA.AperFunction,Profile*%
%ADD10C,0.100000*%
%TD*%
G04 APERTURE END LIST*
D10*
%TO.C,N1*%
X48433050Y-29815835D02*
X47458950Y-29898515D01*
X47458950Y-29898515D02*
X46507550Y-30033385D01*
X46507550Y-30033385D02*
X45582550Y-30219945D01*
X45582550Y-30219945D02*
X44687550Y-30455065D01*
X44687550Y-30455065D02*
X43826650Y-30737735D01*
X43826650Y-30737735D02*
X43003450Y-31066405D01*
X43003450Y-31066405D02*
X42222050Y-31438475D01*
X42222050Y-31438475D02*
X41485650Y-31852395D01*
X41485650Y-31852395D02*
X41135850Y-32074605D01*
X41135850Y-32074605D02*
X40798850Y-32306635D01*
X40798850Y-32306635D02*
X40474850Y-32547965D01*
X40474850Y-32547965D02*
X40164850Y-32799115D01*
X40164850Y-32799115D02*
X39868750Y-33059045D01*
X39868750Y-33059045D02*
X39587550Y-33327765D01*
X39587550Y-33327765D02*
X39321450Y-33605785D01*
X39321450Y-33605785D02*
X39071350Y-33891575D01*
X39071350Y-33891575D02*
X38837250Y-34186075D01*
X38837250Y-34186075D02*
X38619650Y-34488375D01*
X38619650Y-34488375D02*
X38418650Y-34798475D01*
X38418650Y-34798475D02*
X38235750Y-35116275D01*
X38235750Y-35116275D02*
X38070850Y-35440775D01*
X38070850Y-35440775D02*
X37924650Y-35773075D01*
X37924650Y-35773075D02*
X37626450Y-35852175D01*
X37626450Y-35852175D02*
X37233750Y-36025775D01*
X37233750Y-36025775D02*
X36857550Y-36225775D01*
X36857550Y-36225775D02*
X36498350Y-36451575D01*
X36498350Y-36451575D02*
X36155750Y-36702775D01*
X36155750Y-36702775D02*
X35830250Y-36979175D01*
X35830250Y-36979175D02*
X35521150Y-37280975D01*
X35521150Y-37280975D02*
X35229750Y-37608075D01*
X35229750Y-37608075D02*
X34955350Y-37959475D01*
X34955350Y-37959475D02*
X33938850Y-38257675D01*
X33938850Y-38257675D02*
X32971950Y-38574975D01*
X32971950Y-38574975D02*
X32197850Y-38860275D01*
X32197850Y-38860275D02*
X31462550Y-39158375D01*
X31462550Y-39158375D02*
X30766950Y-39469475D01*
X30766950Y-39469475D02*
X30112250Y-39792975D01*
X30112250Y-39792975D02*
X29499850Y-40128875D01*
X29499850Y-40128875D02*
X28931950Y-40476175D01*
X28931950Y-40476175D02*
X28408950Y-40835275D01*
X28408950Y-40835275D02*
X27933050Y-41205875D01*
X27933050Y-41205875D02*
X27504650Y-41587675D01*
X27504650Y-41587675D02*
X27125850Y-41981975D01*
X27125850Y-41981975D02*
X26798750Y-42387675D01*
X26798750Y-42387675D02*
X26525350Y-42804175D01*
X26525350Y-42804175D02*
X26308850Y-43230475D01*
X26308850Y-43230475D02*
X26222550Y-43447575D01*
X26222550Y-43447575D02*
X26151250Y-43666675D01*
X26151250Y-43666675D02*
X26095350Y-43888375D01*
X26095350Y-43888375D02*
X26055050Y-44112075D01*
X26055050Y-44112075D02*
X26030750Y-44337375D01*
X26030750Y-44337375D02*
X26022550Y-44565275D01*
X26022550Y-44565275D02*
X26030750Y-44793175D01*
X26030750Y-44793175D02*
X26055050Y-45019075D01*
X26055050Y-45019075D02*
X26095350Y-45242775D01*
X26095350Y-45242775D02*
X26151250Y-45463975D01*
X26151250Y-45463975D02*
X26308850Y-45900675D01*
X26308850Y-45900675D02*
X26525350Y-46327475D01*
X26525350Y-46327475D02*
X26798750Y-46743975D01*
X26798750Y-46743975D02*
X27125850Y-47149675D01*
X27125850Y-47149675D02*
X27504650Y-47543975D01*
X27504650Y-47543975D02*
X27933050Y-47926375D01*
X27933050Y-47926375D02*
X28408950Y-48296875D01*
X28408950Y-48296875D02*
X28931950Y-48655975D01*
X28931950Y-48655975D02*
X29499850Y-49003275D01*
X29499850Y-49003275D02*
X30112250Y-49339175D01*
X30112250Y-49339175D02*
X30766950Y-49662675D01*
X30766950Y-49662675D02*
X31462550Y-49973775D01*
X31462550Y-49973775D02*
X32197850Y-50271975D01*
X32197850Y-50271975D02*
X32971950Y-50557175D01*
X32971950Y-50557175D02*
X33627750Y-50778375D01*
X33627750Y-50778375D02*
X34307250Y-50990275D01*
X34307250Y-50990275D02*
X35010650Y-51192275D01*
X35010650Y-51192275D02*
X35736150Y-51384575D01*
X35736150Y-51384575D02*
X37250750Y-51739075D01*
X37250750Y-51739075D02*
X38842450Y-52052675D01*
X38842450Y-52052675D02*
X39384550Y-52144675D01*
X39384550Y-52144675D02*
X40549250Y-52330175D01*
X40549250Y-52330175D02*
X30755550Y-91808475D01*
X30755550Y-91808475D02*
X30779850Y-92074575D01*
X30779850Y-92074575D02*
X30851650Y-92342275D01*
X30851650Y-92342275D02*
X30970550Y-92610975D01*
X30970550Y-92610975D02*
X31134850Y-92879175D01*
X31134850Y-92879175D02*
X31343150Y-93146875D01*
X31343150Y-93146875D02*
X31594850Y-93413475D01*
X31594850Y-93413475D02*
X31888350Y-93678575D01*
X31888350Y-93678575D02*
X32222650Y-93940575D01*
X32222650Y-93940575D02*
X32596850Y-94199975D01*
X32596850Y-94199975D02*
X33009150Y-94455275D01*
X33009150Y-94455275D02*
X33458250Y-94705975D01*
X33458250Y-94705975D02*
X33944050Y-94951875D01*
X33944050Y-94951875D02*
X34464350Y-95192175D01*
X34464350Y-95192175D02*
X35018850Y-95425775D01*
X35018850Y-95425775D02*
X35605450Y-95652675D01*
X35605450Y-95652675D02*
X36223950Y-95871275D01*
X36223950Y-95871275D02*
X36871950Y-96082075D01*
X36871950Y-96082075D02*
X37549450Y-96284075D01*
X37549450Y-96284075D02*
X38254850Y-96476375D01*
X38254850Y-96476375D02*
X38987150Y-96658275D01*
X38987150Y-96658275D02*
X39744150Y-96829275D01*
X39744150Y-96829275D02*
X40526050Y-96988975D01*
X40526050Y-96988975D02*
X41331150Y-97136775D01*
X41331150Y-97136775D02*
X42158450Y-97271175D01*
X42158450Y-97271175D02*
X43005950Y-97392575D01*
X43005950Y-97392575D02*
X43873650Y-97499575D01*
X43873650Y-97499575D02*
X44759350Y-97592075D01*
X44759350Y-97592075D02*
X45662650Y-97669575D01*
X45662650Y-97669575D02*
X46581950Y-97730575D01*
X46581950Y-97730575D02*
X47516350Y-97774975D01*
X47516350Y-97774975D02*
X48464550Y-97801875D01*
X48464550Y-97801875D02*
X49425250Y-97811175D01*
X49425250Y-97811175D02*
X50385950Y-97801875D01*
X50385950Y-97801875D02*
X51334150Y-97774975D01*
X51334150Y-97774975D02*
X52268450Y-97730575D01*
X52268450Y-97730575D02*
X53187750Y-97669575D01*
X53187750Y-97669575D02*
X54091150Y-97592075D01*
X54091150Y-97592075D02*
X54976850Y-97499575D01*
X54976850Y-97499575D02*
X55844450Y-97392575D01*
X55844450Y-97392575D02*
X56691950Y-97271175D01*
X56691950Y-97271175D02*
X57519350Y-97136775D01*
X57519350Y-97136775D02*
X58323950Y-96988975D01*
X58323950Y-96988975D02*
X59105750Y-96829275D01*
X59105750Y-96829275D02*
X59863350Y-96658275D01*
X59863350Y-96658275D02*
X60595050Y-96476375D01*
X60595050Y-96476375D02*
X61300450Y-96284075D01*
X61300450Y-96284075D02*
X61977950Y-96082075D01*
X61977950Y-96082075D02*
X62626450Y-95871275D01*
X62626450Y-95871275D02*
X63244550Y-95652675D01*
X63244550Y-95652675D02*
X63831550Y-95425775D01*
X63831550Y-95425775D02*
X64385550Y-95192175D01*
X64385550Y-95192175D02*
X64905950Y-94951875D01*
X64905950Y-94951875D02*
X65391750Y-94705975D01*
X65391750Y-94705975D02*
X65841250Y-94455275D01*
X65841250Y-94455275D02*
X66253650Y-94199975D01*
X66253650Y-94199975D02*
X66627250Y-93940575D01*
X66627250Y-93940575D02*
X66961650Y-93678575D01*
X66961650Y-93678575D02*
X67255150Y-93413475D01*
X67255150Y-93413475D02*
X67506850Y-93146875D01*
X67506850Y-93146875D02*
X67715050Y-92879175D01*
X67715050Y-92879175D02*
X67879450Y-92610975D01*
X67879450Y-92610975D02*
X67997750Y-92342275D01*
X67997750Y-92342275D02*
X68070050Y-92074575D01*
X68070050Y-92074575D02*
X68094350Y-91808475D01*
X68094350Y-91808475D02*
X58300650Y-52330175D01*
X58300650Y-52330175D02*
X59480950Y-52142075D01*
X59480950Y-52142075D02*
X60002850Y-52053775D01*
X60002850Y-52053775D02*
X61596550Y-51739575D01*
X61596550Y-51739575D02*
X63112750Y-51385075D01*
X63112750Y-51385075D02*
X63839350Y-51192775D01*
X63839350Y-51192775D02*
X64543150Y-50990775D01*
X64543150Y-50990775D02*
X65223750Y-50778875D01*
X65223750Y-50778875D02*
X65880050Y-50557175D01*
X65880050Y-50557175D02*
X66653650Y-50271975D01*
X66653650Y-50271975D02*
X67388950Y-49973775D01*
X67388950Y-49973775D02*
X68084550Y-49662675D01*
X68084550Y-49662675D02*
X68739350Y-49339175D01*
X68739350Y-49339175D02*
X69351150Y-49003275D01*
X69351150Y-49003275D02*
X69919050Y-48655975D01*
X69919050Y-48655975D02*
X70441550Y-48296875D01*
X70441550Y-48296875D02*
X70917450Y-47926375D01*
X70917450Y-47926375D02*
X71345850Y-47543975D01*
X71345850Y-47543975D02*
X71724650Y-47149675D01*
X71724650Y-47149675D02*
X72051750Y-46743975D01*
X72051750Y-46743975D02*
X72324650Y-46327475D01*
X72324650Y-46327475D02*
X72541150Y-45900675D01*
X72541150Y-45900675D02*
X72698750Y-45463975D01*
X72698750Y-45463975D02*
X72754550Y-45242775D01*
X72754550Y-45242775D02*
X72794850Y-45019075D01*
X72794850Y-45019075D02*
X72819150Y-44793175D01*
X72819150Y-44793175D02*
X72827450Y-44565275D01*
X72827450Y-44565275D02*
X72819150Y-44337375D01*
X72819150Y-44337375D02*
X72794850Y-44112075D01*
X72794850Y-44112075D02*
X72754550Y-43888375D01*
X72754550Y-43888375D02*
X72698750Y-43666675D01*
X72698750Y-43666675D02*
X72541150Y-43230475D01*
X72541150Y-43230475D02*
X72324650Y-42804175D01*
X72324650Y-42804175D02*
X72051750Y-42387675D01*
X72051750Y-42387675D02*
X71724650Y-41981975D01*
X71724650Y-41981975D02*
X71345850Y-41587675D01*
X71345850Y-41587675D02*
X70917450Y-41205875D01*
X70917450Y-41205875D02*
X70441550Y-40835275D01*
X70441550Y-40835275D02*
X69919050Y-40476175D01*
X69919050Y-40476175D02*
X69351150Y-40128875D01*
X69351150Y-40128875D02*
X68739350Y-39792975D01*
X68739350Y-39792975D02*
X68084550Y-39469475D01*
X68084550Y-39469475D02*
X67388950Y-39158375D01*
X67388950Y-39158375D02*
X66653650Y-38860275D01*
X66653650Y-38860275D02*
X65880050Y-38574975D01*
X65880050Y-38574975D02*
X64901250Y-38254075D01*
X64901250Y-38254075D02*
X63872450Y-37953275D01*
X63872450Y-37953275D02*
X63598050Y-37601875D01*
X63598050Y-37601875D02*
X63306550Y-37274775D01*
X63306550Y-37274775D02*
X62997550Y-36972975D01*
X62997550Y-36972975D02*
X62671950Y-36696575D01*
X62671950Y-36696575D02*
X62329350Y-36445375D01*
X62329350Y-36445375D02*
X61970250Y-36219575D01*
X61970250Y-36219575D02*
X61594050Y-36019575D01*
X61594050Y-36019575D02*
X61186250Y-35841325D01*
X61186250Y-35841325D02*
X60925850Y-35773575D01*
X60925850Y-35773575D02*
X60779550Y-35441375D01*
X60779550Y-35441375D02*
X60614750Y-35116275D01*
X60614750Y-35116275D02*
X60431750Y-34798975D01*
X60431750Y-34798975D02*
X60231250Y-34488975D01*
X60231250Y-34488975D02*
X60013750Y-34186575D01*
X60013750Y-34186575D02*
X59779150Y-33892075D01*
X59779150Y-33892075D02*
X59529050Y-33605785D01*
X59529050Y-33605785D02*
X59262850Y-33328275D01*
X59262850Y-33328275D02*
X58981750Y-33059045D01*
X58981750Y-33059045D02*
X58686150Y-32799115D01*
X58686150Y-32799115D02*
X58375550Y-32548485D01*
X58375550Y-32548485D02*
X58052050Y-32306635D01*
X58052050Y-32306635D02*
X57715150Y-32074605D01*
X57715150Y-32074605D02*
X57364850Y-31852395D01*
X57364850Y-31852395D02*
X56628950Y-31438475D01*
X56628950Y-31438475D02*
X55847050Y-31066405D01*
X55847050Y-31066405D02*
X55023850Y-30738255D01*
X55023850Y-30738255D02*
X54162950Y-30455065D01*
X54162950Y-30455065D02*
X53267850Y-30219945D01*
X53267850Y-30219945D02*
X52342850Y-30033385D01*
X52342850Y-30033385D02*
X51391550Y-29898515D01*
X51391550Y-29898515D02*
X50417950Y-29815835D01*
X50417950Y-29815835D02*
X49425250Y-29787925D01*
X49425250Y-29787925D02*
X48433050Y-29815835D01*
%TD*%
M02*
